HIERARCHY
ROOT root
{
	OFFSET 0.000000 0.000000 0.000000
	CHANNELS 6 Xposition Yposition Zposition Zrotation Yrotation Xrotation
	JOINT lhip
	{
		OFFSET 0.058581 -0.082280 -0.017664
		CHANNELS 3 Zrotation Yrotation Xrotation
		JOINT lknee
		{
			OFFSET 0.043451 -0.386469 0.008037
			CHANNELS 3 Zrotation Yrotation Xrotation
			JOINT lankle
			{
				OFFSET -0.014790 -0.426874 -0.037428
				CHANNELS 3 Zrotation Yrotation Xrotation
				JOINT ltoe
				{
					OFFSET 0.041054 -0.060286 0.122042
					CHANNELS 3 Zrotation Yrotation Xrotation
					End Site
					{
						OFFSET 0.000000 0.000000 0.000000
					}
				}
			}
		}
	}
	JOINT rhip
	{
		OFFSET -0.060310 -0.090513 -0.013543
		CHANNELS 3 Zrotation Yrotation Xrotation
		JOINT rknee
		{
			OFFSET -0.043257 -0.383688 -0.004843
			CHANNELS 3 Zrotation Yrotation Xrotation
			JOINT rankle
			{
				OFFSET 0.019056 -0.420046 -0.034562
				CHANNELS 3 Zrotation Yrotation Xrotation
				JOINT rtoe
				{
					OFFSET -0.034840 -0.062106 0.130323
					CHANNELS 3 Zrotation Yrotation Xrotation
					End Site
					{
						OFFSET 0.000000 0.000000 0.000000
					}
				}
			}
		}
	}
	JOINT lowerback
	{
		OFFSET 0.004439 0.124404 -0.038385
		CHANNELS 3 Zrotation Yrotation Xrotation
		JOINT upperback
		{
			OFFSET 0.004488 0.137956 0.026820
			CHANNELS 3 Zrotation Yrotation Xrotation
			JOINT chest
			{
				OFFSET -0.002265 0.056032 0.002855
				CHANNELS 3 Zrotation Yrotation Xrotation
				JOINT lowerneck
				{
					OFFSET -0.013390 0.211636 -0.033468
					CHANNELS 3 Zrotation Yrotation Xrotation
					JOINT upperneck
					{
						OFFSET 0.010113 0.088937 0.050410
						CHANNELS 3 Zrotation Yrotation Xrotation
						End Site
						{
							OFFSET 0.000000 0.000000 0.000000
						}
					}
				}
				JOINT lclavicle
				{
					OFFSET 0.071702 0.114000 -0.018898
					CHANNELS 3 Zrotation Yrotation Xrotation
					JOINT lshoulder
					{
						OFFSET 0.122921 0.045205 -0.019046
						CHANNELS 3 Zrotation Yrotation Xrotation
						JOINT lelbow
						{
							OFFSET 0.255332 -0.015649 -0.022946
							CHANNELS 3 Zrotation Yrotation Xrotation
							JOINT lwrist
							{
								OFFSET 0.265709 0.012698 -0.007375
								CHANNELS 3 Zrotation Yrotation Xrotation
								End Site
								{
									OFFSET 0.000000 0.000000 0.000000
								}
							}
						}
					}
				}
				JOINT rclavicle
				{
					OFFSET -0.082954 0.112472 -0.023707
					CHANNELS 3 Zrotation Yrotation Xrotation
					JOINT rshoulder
					{
						OFFSET -0.113228 0.046853 -0.008472
						CHANNELS 3 Zrotation Yrotation Xrotation
						JOINT relbow
						{
							OFFSET -0.260127 -0.014369 -0.031269
							CHANNELS 3 Zrotation Yrotation Xrotation
							JOINT rwrist
							{
								OFFSET -0.269108 0.006794 -0.006027
								CHANNELS 3 Zrotation Yrotation Xrotation
								End Site
								{
									OFFSET 0.000000 0.000000 0.000000
								}
							}
						}
					}
				}
			}
		}
	}
}
MOTION
Frames: 14
Frame Time: 0.033333
-0.111445 0.987611 0.999577 -8.169826 0.385532 83.769248 8.550036 5.875690 12.201764 -0.776184 0.036163 -0.030752 -0.029913 13.848106 -10.416491 0.000000 -0.000000 0.000000 0.502386 -1.994381 6.994499 2.346827 2.726974 6.511590 2.194712 -4.473595 -9.939415 0.000000 -0.000000 0.000000 1.400210 -0.716944 5.746753 0.787164 -2.207382 2.817182 -0.657424 -0.713958 0.794334 0.943207 4.152756 -1.847734 -0.527621 4.027460 -1.679287 -30.555359 7.050221 -0.952847 -53.813249 3.470182 8.914720 10.894191 -25.359377 1.988455 -6.486559 -5.169059 -1.365638 26.719694 -3.198713 0.131848 54.279152 -4.992470 11.123205 -15.059129 27.391501 -3.229564 8.587239 5.362414 -2.275361 
-0.120396 0.985430 0.998803 -9.028026 0.380631 83.937475 9.053809 5.926192 11.641236 -0.826819 0.565057 1.554074 -0.118118 14.101630 -10.996693 0.000000 -0.000000 0.000000 0.731694 -1.839513 7.195000 2.830122 3.247332 6.245728 2.134952 -4.014279 -10.029979 0.000000 -0.000000 0.000000 1.540633 -0.727384 5.694233 0.792615 -2.227652 2.960093 -0.680796 -0.710819 0.729187 0.966132 4.387874 -1.878467 -0.726887 4.223067 -1.595320 -30.603803 6.826914 -1.097648 -53.717191 3.090890 8.940395 10.863877 -26.206648 1.989921 -6.149685 -5.071747 -1.415401 26.755999 -3.068120 0.283607 53.974192 -4.828661 11.048743 -14.927090 27.468162 -3.267546 8.603506 5.198869 -2.039954 
-0.129049 0.983563 0.998225 -9.747986 0.295502 83.938173 9.492664 5.688262 10.300531 -1.104543 1.290123 4.906255 -0.005376 14.466743 -12.095023 0.000000 -0.000000 0.000000 0.883365 -1.662072 7.700648 3.278364 3.588611 5.812661 1.915384 -3.743698 -10.184732 0.000000 -0.000000 0.000000 1.718284 -0.660633 5.947052 0.707634 -2.352376 3.082632 -0.756711 -0.779174 0.650026 1.013285 4.773043 -1.944735 -0.774876 4.358948 -1.545124 -30.543453 6.389069 -1.107984 -53.617204 2.490108 8.922757 10.852861 -27.284496 1.985917 -5.786434 -5.319718 -1.589476 26.661556 -2.750609 0.469376 53.960189 -4.585596 10.857885 -14.887988 27.360682 -3.402926 8.477550 5.363368 -2.235680 
-0.137346 0.982229 0.997800 -10.298916 0.298227 83.727926 9.870214 5.177524 8.172158 -1.175716 2.319975 10.098015 0.132859 14.930513 -13.454319 0.000000 -0.000000 0.000000 1.119026 -1.568436 8.475837 3.742614 3.922908 5.326313 1.357192 -3.623781 -10.297204 0.000000 -0.000000 0.000000 1.988719 -0.414596 6.584142 0.705741 -2.610955 3.279218 -0.814306 -0.913914 0.521017 1.099864 5.030442 -2.260143 -0.891687 4.401257 -1.337997 -30.634054 5.777378 -1.117514 -53.310466 1.708567 8.958401 10.744024 -28.815322 1.943854 -5.232031 -5.392374 -1.849567 26.630489 -2.412657 0.668310 53.406467 -4.488191 10.720016 -14.485969 27.966296 -3.478091 8.241965 5.289528 -2.263019 
-0.145063 0.980190 0.997380 -10.795949 0.319715 83.380279 9.985375 4.464075 5.748730 -0.764417 3.866611 16.109554 0.378441 15.636843 -14.305488 0.000000 -0.000000 0.000000 1.431814 -1.496349 9.493829 4.028596 4.222613 4.645236 0.667290 -3.593191 -10.380572 0.000000 -0.000000 0.000000 2.302895 0.074797 7.180638 0.746739 -2.957871 3.846040 -0.864712 -1.090471 0.379650 1.288727 5.243520 -2.563720 -0.911762 4.296064 -1.390643 -30.733737 5.066722 -1.205235 -53.100594 0.735514 8.862160 10.760349 -30.579615 1.711902 -5.102708 -5.714163 -1.847145 26.681980 -1.973155 0.844531 52.807636 -4.180197 10.396803 -14.432840 28.269251 -3.724675 8.080408 5.432634 -1.587558 
-0.151918 0.977807 0.997539 -11.194072 0.296531 82.879703 9.865573 3.595859 3.142613 -0.122540 5.829091 22.492936 1.081260 16.515854 -14.594908 0.000000 -0.000000 0.000000 1.730920 -1.465335 10.775448 4.095342 4.411773 3.802430 0.057451 -3.556199 -10.327222 0.000000 -0.000000 0.000000 2.647349 0.726269 8.130706 0.741350 -3.285772 4.233137 -0.855436 -1.295825 0.148145 1.474483 5.310857 -2.616469 -0.825395 4.238975 -1.378644 -30.833185 4.326903 -1.205124 -52.932653 -0.280011 8.807434 10.808372 -32.585433 1.376153 -5.046700 -6.093052 -1.954476 26.635612 -1.460151 1.010027 52.306510 -3.973154 10.123795 -14.423365 28.301749 -4.263231 7.970225 5.686215 -1.113932 
-0.157924 0.974539 0.998059 -11.665833 0.121944 82.414858 9.547918 2.676267 0.649531 -0.125340 7.206271 28.048751 1.145735 16.522168 -15.243421 0.000000 -0.000000 0.000000 1.787100 -1.491035 12.150494 4.079611 4.683237 2.799791 -0.312890 -3.401270 -10.123288 0.000000 -0.000000 0.000000 2.818915 1.455464 8.993739 0.721711 -3.498091 4.527657 -0.798121 -1.349784 -0.020457 1.667418 5.350861 -2.426246 -0.630955 4.079345 -1.441464 -30.889555 3.708995 -1.135518 -52.909516 -1.296241 8.529085 10.825131 -34.906730 1.104786 -4.918271 -6.630829 -2.188862 26.569563 -0.959812 1.275191 51.852874 -3.727328 9.762296 -14.636653 28.133894 -4.437059 8.102819 5.861802 -0.194195 
-0.162834 0.971324 0.998573 -12.445573 -0.228746 82.293437 8.861725 1.691132 -2.032229 -1.541290 7.279594 32.114756 1.159841 15.530017 -15.843649 0.000000 -0.000000 0.000000 1.588145 -1.696688 12.831528 3.920315 5.250362 2.187891 -0.492721 -3.038108 -10.047079 0.000000 -0.000000 0.000000 2.835956 2.322976 9.601401 0.688686 -3.527707 4.748168 -0.717297 -1.185949 -0.247878 1.661895 5.029488 -2.317486 -0.369975 4.104207 -1.301328 -30.981402 3.336907 -1.122204 -52.899908 -2.212903 8.464980 10.800571 -37.549266 1.027100 -4.218187 -7.286469 -2.778280 26.433329 -0.473901 1.644954 51.475828 -3.335949 9.491196 -14.577844 27.712605 -4.760183 8.043608 6.091653 -0.078449 
-0.167456 0.967556 0.999393 -13.345393 -0.567664 82.185890 8.014109 0.830275 -4.518323 -3.186775 7.133866 34.703423 1.050694 14.517333 -15.787111 0.000000 -0.000000 0.000000 1.460669 -1.808888 13.311850 3.666657 5.798524 1.940407 -0.695077 -2.725900 -10.182987 0.000000 -0.000000 0.000000 2.829743 3.108524 10.343525 0.607766 -3.437883 4.781558 -0.659063 -0.927362 -0.496744 1.632135 4.665019 -2.290140 -0.115336 4.274785 -1.111771 -31.036496 3.255618 -1.169447 -52.830156 -2.836025 8.604412 10.613374 -40.444681 1.053729 -3.321614 -7.731761 -3.408858 26.402076 -0.087152 1.811983 51.081360 -2.974557 9.477572 -14.246533 27.126119 -5.018576 8.016283 6.125238 -0.162075 
-0.171558 0.963020 1.000288 -14.279503 -0.875376 82.082388 7.028189 0.204068 -6.706034 -4.189865 7.475219 35.789591 0.837691 13.587805 -15.549672 0.000000 -0.000000 0.000000 1.379505 -1.769171 13.640792 3.388892 6.186729 2.023283 -0.765683 -2.402009 -10.508380 0.000000 -0.000000 0.000000 2.893259 3.734185 11.082581 0.480121 -3.303951 4.729688 -0.633703 -0.640546 -0.645058 1.543780 4.553002 -2.279924 0.021316 4.317283 -1.102362 -30.951663 3.255247 -1.209697 -52.904937 -3.135290 8.763871 10.435145 -43.277522 1.089667 -2.517738 -8.181795 -3.939495 26.407835 0.369041 1.965006 50.783365 -2.507005 9.445519 -14.224422 26.643030 -5.344035 7.693604 6.219600 0.226520 
-0.175229 0.957697 1.000739 -15.209541 -1.111692 81.974230 5.990917 -0.032310 -8.592528 -4.058027 8.722434 35.421797 0.831322 13.466876 -15.305417 0.000000 -0.000000 0.000000 1.409731 -1.626392 13.932013 3.016084 6.460301 2.319490 -0.652368 -2.087881 -11.013708 0.000000 -0.000000 0.000000 3.015729 4.238474 11.810523 0.346178 -3.202516 4.740902 -0.634728 -0.373515 -0.750873 1.418068 4.577183 -2.369979 0.092560 4.301240 -1.328041 -30.755283 3.337871 -1.291559 -53.158170 -3.172052 8.931936 10.459428 -45.747287 1.201890 -2.234481 -8.765533 -4.188445 26.389695 0.863153 2.083678 50.572036 -2.015758 9.467333 -14.410952 26.650280 -5.657664 7.414013 6.513111 0.831968 
-0.178721 0.951547 1.000652 -15.798359 -1.167692 81.983390 4.973512 0.022198 -10.421181 -3.234834 10.181687 33.870875 1.082666 14.087326 -14.852372 0.000000 -0.000000 0.000000 1.626230 -1.600522 14.211067 2.652413 6.730509 2.509783 -0.598748 -1.985600 -11.548578 0.000000 -0.000000 0.000000 3.213223 4.611558 12.314821 0.269872 -3.252182 4.746410 -0.599548 -0.188219 -0.749949 1.219475 4.490825 -2.481653 0.164339 4.372943 -1.735992 -30.524866 3.345617 -1.439938 -53.533740 -3.119256 9.249196 10.644616 -47.323461 1.300926 -2.349675 -9.140574 -4.310921 26.226788 1.244615 2.167968 50.608511 -1.584279 9.625113 -14.533691 26.999042 -5.897740 7.167258 6.791038 0.918487 
-0.182257 0.944510 1.000079 -16.294563 -1.154607 82.018836 4.003046 0.270178 -11.863181 -2.480274 11.651072 31.118787 1.228642 14.491094 -14.043817 0.000000 -0.000000 0.000000 1.837681 -1.720025 14.625619 2.320087 7.013674 2.557427 -0.411553 -1.831374 -11.911823 0.000000 -0.000000 0.000000 3.382651 4.941824 12.669291 0.232292 -3.390804 4.827710 -0.537198 -0.105114 -0.739476 1.097111 4.434790 -2.751982 0.194017 4.426863 -1.844460 -30.319510 3.310330 -1.493786 -53.918498 -2.971430 9.497286 10.880557 -47.986406 1.083179 -2.358016 -9.253738 -4.459164 26.146042 1.577903 2.232909 50.635734 -1.152167 9.890149 -14.724744 27.699964 -6.315186 6.846706 6.935751 1.051055 
-0.185487 0.936777 0.999103 -16.610249 -1.056506 82.079118 3.082971 0.546617 -13.021907 -2.184988 12.741079 27.477371 1.395064 14.732201 -12.674704 0.000000 -0.000000 0.000000 2.034696 -1.848424 15.158896 2.128923 7.264312 2.442280 -0.274053 -1.735017 -12.206015 0.000000 -0.000000 0.000000 3.601645 5.127654 13.063965 0.152971 -3.567336 4.567854 -0.438569 -0.130850 -0.536039 0.926061 4.376466 -3.111049 0.236057 4.562491 -1.702842 -30.270907 3.330018 -1.513058 -54.175841 -2.841003 9.707527 11.119814 -47.716491 1.070368 -2.459988 -9.161870 -4.634969 26.146434 1.661144 2.128306 50.602905 -0.681684 10.331120 -14.857270 28.543572 -6.505111 6.559412 7.102324 1.082174 
